<?xml version="1.0" encoding="UTF-8"?>
<svg version="1.1" viewBox="0 0 2048 1522" width="834" height="620" xmlns="http://www.w3.org/2000/svg">
<path transform="translate(0)" d="m0 0h2048v1522h-2048z" fill="#D9D6D5"/>
<path transform="translate(870)" d="m0 0h1178v1522h-739v-13l1-14h-146v-294h241l53 1 36-1 9-2 10-4 9-8 4-7 1-5v-47l-4-10-8-9 7-12v-45l-6-10-7-6-12-5-7-1-33-1 1-121h145l2 1v143l145 1v-143l1-3h-213l-80-1-1-169 1-33h-2v56h-134l4-8 15-25 15-28 14-29 15-35 7-21 4-9 13-38 10-35 5-24 1-7-6-1-28-11-7 1-14 9-22 13-25 14-25 13-19 10-18 8-4 1-13-38-11-26-9-20-3-7-10-19-12-21-14-23-8-11-14-20-10-12-9-11-11-12-7-8-7-6-5-6 10-9 2-5v-11l-5-8-6-4-9-2-15-1 8-14 16-31 5-7 3-1h46l36 3 28 5 25 7 22 7 9 4 16 6 5 3 5 2 16 9v2l4 1 11 8 6 5 5 5 5 4 7 8 14 18 10 17 10 21 7 19 6 23 4 23 2 17 1 19 1 7 1 1v-39l-3-29-5-25-4-17-8-24-4-11-2-5h2l-5-14-6-14-4-11-7-15-11-23-13-23-13-21-12-18-2-5-3-1-7-11-8-11v-3l-4-2-9-11-11-13-9-10-11-8-16-8-19-8-30-10-33-7-20-3-21-2-22-1h-30l-28 2-21 2-32 5-36 8-30 8-38 12-20 7v-82-2z" fill="#98906D"/>
<path transform="translate(870)" d="m0 0h880v26l-4 1 4 1v879h-212l-80-1-1-169 1-33h-2v56h-134l4-8 15-25 15-28 14-29 15-35 7-21 4-9 13-38 10-35 5-24 1-7-6-1-28-11-7 1-14 9-22 13-25 14-25 13-19 10-18 8-4 1-13-38-11-26-9-20-3-7-10-19-12-21-14-23-8-11-14-20-10-12-9-11-11-12-7-8-7-6-5-6 10-9 2-5v-11l-5-8-6-4-9-2-15-1 8-14 16-31 5-7 3-1h46l36 3 28 5 25 7 22 7 9 4 16 6 5 3 5 2 16 9v2l4 1 11 8 6 5 5 5 5 4 7 8 14 18 10 17 10 21 7 19 6 23 4 23 2 17 1 19 1 7 1 1v-39l-3-29-5-25-4-17-8-24-4-11-2-5h2l-5-14-6-14-4-11-7-15-11-23-13-23-13-21-12-18-2-5-3-1-7-11-8-11v-3l-4-2-9-11-11-13-9-10-11-8-16-8-19-8-30-10-33-7-20-3-21-2-22-1h-30l-28 2-21 2-32 5-36 8-30 8-38 12-20 7v-82-2z" fill="#C6BDB0"/>
<path transform="translate(282,561)" d="m0 0h1v199h145v-73l2-1v74h145v-116l2-1v116h70v3h-36l-34-1v144l52 1 93 1v-53l2 1v51l145 1v-13h1l1 13 11-1h57l77 1v-27l28-6 29-8 36-12 33-13 21-9 13-6 18-8 40-20 21-12h4l11 14 9 11 4 3 13-17 11-16 3-2 3-7 7-11 2-1h134v-56h2v202h147l146 1-1 146h-145l-1-1v-142l-1-2h-145v113l-1 8h33l10 2 12 6 8 9 3 6v45l-6 10v3l7 8 4 10v47l-3 9-9 10-10 5-5 2-7 1h-36v20h-1v-20h-270l-23-1v146h37v1h-37v147h146v14l-1 13h-146l-1-173-46-1v39h-24l-1-58-2 19-1 1-5 33-2 5h-26l-1-1-5-36-3-20-1 56-1 1h-24v-101h38l10 60 1 1 8-52 2-9h37v61l46-1 1-144h-131l1-147h-16v288h-1l-1-30v-35l1-76h-124l-7-41-1-3h-3v44h-41l-1-148 1-25h29v-121h-145v23l-1 100h-1v-123h-145v145h77l4 1 1-13 2-12h59l6 45 12 85 6 43h-150l-17-1v146h67v-61h24v21h2l1-4 4-10 4-7h26l-4 10-17 35v5l5 10 99 1v-61h46v20h-22v18h20v20h-20v23h22v20h-46v-39l-65 1-33-1 12 24 6 13v2h-25l-3-4-9-20-3-2v25l-4 1h-20l-1-38h-67l-19-1 2 10 3 21v8h-24l-1-1v-13l-12 1-1 13h-24l1-14 3-22 1-3h-75l-1 2v-2h-5l4-1v-146h-144v-1h144v-145h-28l-116-1v-1h144v-292l-146 1-1-1v-147l-2-1h2v-51z" fill="#9F9371"/>
<path transform="translate(577,908)" d="m0 0h145l1 23 1-23h145v121h-29v173l40-1v-43l4-1 2 4 6 36v5l80-1h28l16 1v111l1-258h16v145l-1 2h131v144l-1 1h-46v-61h-37l-1 9-8 52-2 4-5-28-5-33v-4h-38l1 60-1 41 24-1 1-58 2 2 8 56h26l5-30 1-7 1-5 2-15 2-1v59h24v-39h46l1 1v173h-1163v-175l134-1 1-145h-66v-1h65v-19l2-1v19l145 1v-52l2-1v200h39v-61h38l5 31 5 30v4h2v-11l8-51 1-3h37v101h-24v-39l-4 1-6 38h-27l-1-1-5-35-2-13-2-9v58h-25v-38l-39-1v146l7-1h128l10-1v-139l2-5h75l-3 25-2 14h24v-13l1-1h12l1 13 24 1-5-39h86l1 1v38l24-1v-25l4 2 10 22 1 1 25 1-18-37v-2h98v39h46v-20h-22v-23h20v-20h-20v-18h22v-20h-46v61h-99l-6-11 1-7 11-22 9-20-25-1-2 6-4 8-3 7h-2v-21h-24v61h-67v-146l167 1-2-8-7-49-13-93-2-16v-7h-59l-2 20-1 5h-51l-30-1z" fill="#A59474"/>
<path transform="translate(1009,136)" d="m0 0h11l10 3 9 6 11 14 6 7 6 3h12l11-6 11-8 10-4 9-1 14 3 8 5 7 7 3 6-1 7-6 11h49l31 4 27 6 20 6 24 10 23 12 21 14 14 11 16 15 9 10 11 15 10 18 8 17 3 8 9 27 5 22 4 25 2 21v39l-2 1-2-9-1-19-4-30-5-22-5-17-10-24-11-21-14-19-10-11v-2l-4-2-6-5-5-5-10-8-6-3v-2l-5-2-11-6-13-6-13-5-12-5-30-9-14-4-15-3-21-3-32-2h-42l-4 2-14 27-10 18-3 4 20 2 8 4 5 6 2 4v11l-3 6-9 8 6 7 8 7 13 14 18 22 10 13 11 16 10 15 17 29 12 23 1 2 70 1v1h-69l10 21 14 34 11 32v3l24-11 27-14 19-10 25-14 28-17 6-4 7 1 31 12v2l-14 9-32 17-22 12-47 24-28 14-28 13-24 11-34 15-32 14-11 5h-3l3 5 14 18 9 12 5 6v2l-30 15-27 12-19 8-44 16-34 10-30 8-36 8-34 6-44 5-49 3h-22l-31-3-23-4-20-5-23-8-20-9-19-10-18-12-14-11-12-11-9-9-11-14-7-10-12-23-7-16-7-21-4-15-6-33-3-22-1-19v-14l1-17 2 1 4 49 4 18 4 19 6 19 5 12 10 21 12 19 8 10 9 10 10 10 13 10 18 11 15 7 26 10 32 10 25 6 24 4 33 3h45l7-1v-296l-3-5-12-6-20-4-8-1 1-4 7-12 16-23 12-16 10-11 9-11 14-15 5-5 1-2h-39v7h-1l-1-9 1-27-20 9h-2l14 19 7 9v2h2l4 6v3l-3 1-1 22h-1v-21l-51 20-43 19-25 11-26 12-40 20-22 12-27 15-18 11-13 9-9-2-13-5-7-3-8-3-2-1v-2l12-6 21-12 24-13 26-14 70-35 33-15 26-12 28-12 29-12 8-2-14-19-14-18-3-4 1-3 29-15 36-16 12-5 13-5 10-4-1-4-12-23-12-22-5-9v-6l6-9 10-7 9-3h15l12 5 16 11 4 2h12l7-4 9-10 8-10 8-6z" fill="#7AC060"/>
<path transform="translate(282,561)" d="m0 0h1v199h145v-73l2-1v74h145v-116l2-1v116h70v3h-36l-34-1v144l52 1 93 1v-53l2 1v51l145 1v-13h1l1 13 11-1h57l76 1v1h-144l-1 121h27l12 3 8 4 6 5 6 12 1 9v68l-3 9-5 6 2 11 9 35 2 11h-43l-7-41-1-3h-3v44h-41l-1-148 1-25h29v-121h-145v23l-1 100h-1v-123h-145v145h77l4 1 1-13 2-12h59l6 45 12 85 6 43h-150l-17-1v146h67v-61h24v21h2l1-4 4-10 4-7h26l-4 10-17 35v5l5 10 99 1v-61h46v20h-22v18h20v20h-20v23h22v20h-46v-39l-65 1-33-1 12 24 6 13v2h-25l-3-4-9-20-3-2v25l-4 1h-20l-1-38h-67l-19-1 2 10 3 21v8h-24l-1-1v-13l-12 1-1 13h-24l1-14 3-22 1-3h-75l-1 2v-2h-5l4-1v-146h-144v-1h144v-145h-28l-116-1v-1h144v-292l-146 1-1-1v-147l-2-1h2v-51z" fill="#A79575"/>
<path transform="translate(1424,501)" d="m0 0h1v7l-5 24-12 41-13 38-4 9-7 20-16 36-15 31-12 22-15 25-4 7-3 3-7 11-1 5-4 2-10 15-10 13-5 5-7-7-7-9-9-11v-2l-7 3-28 15-36 18-21 9h-3l-1 3h-3l-25 11-29 11-36 12-26 7-22 5h-6v27h-145l-1-2-1 2h-145l-1-1v-51l-1-1v53h-93l-53-1 1-145h70l-7-12-12-20-7-12-8-17-5-10-13-31-6-16-1-9 3 4 12 24 9 13 8 10 11 12 8 8 14 11 14 10 21 12 21 10 25 9 18 5 21 4 24 3 14 1h22l49-3 44-5 44-8 38-9 42-12 27-9 32-12 36-16 25-12 8-4h2l-13-17-10-13-8-10v-3l50-22 41-18 34-16 29-14 34-17 53-28 22-12 10-7h2z" fill="#FADC71"/>
<path transform="translate(869)" d="m0 0h1v26h30v1l-29 1v81l28-10 43-13 33-8 36-7 36-4 28-2h30l33 2 23 3 27 5 23 6 15 5 12 5 14 6 17 9 9 7 7 7 9 11 10 12 4 5 2 1 5 9 10 14 6 8 17 26 13 22 10 18 11 23 5 11 6 16 7 16 1 7-3-1-11-21-8-12-9-11-9-10-14-13-16-12-19-12-25-13-26-10-26-7-28-5-18-2-49-1 2-5 4-8-1-7-4-6-8-7-11-4-9-1-10 2-10 5-13 9-6 3h-12l-8-5-10-12-7-9-12-6-5-1h-11l-11 3-9 7-11 14-9 8-3 1h-12l-10-6-10-7-12-5h-15l-11 4-8 6-5 8v6l15 28 14 26 1 4-2 2-13 4-9 4-12 5-42 19-23 12 2 5 10 12 14 19 4 5v2l-28 11-23 10-27 12-39 18-29 14-58 29-22 12-29 16-17 10-5 1 1-9 7-28 4-17 12-36 7-20 9-23 5-11 9-21 12-25 10-20 13-23 13-22 12-18 9-13 9-12 9-11 4-1 13 15 6 8 1 3h7l28-15 29-15 33-15 39-16h3l-1-85z" fill="#FADC72"/>
<path transform="translate(577,908)" d="m0 0h145l1 23 1-23h145v121h-29v173h29v144l-1 1h-55l-1-3h20v-20h-20v-18h22v-20h-46v61h-99l-6-11 1-7 11-22 9-20-25-1-2 6-4 8-3 7h-2v-21h-24v61h-67v-146l167 1-2-8-7-49-13-93-2-16v-7h-59l-2 20-1 5h-51l-30-1z" fill="#DAD8D8"/>
<path transform="translate(1899,908)" d="m0 0h149v585h-150v-292l1-1h34l-35-1v-290z" fill="#DAD8D8"/>
<path transform="translate(283,908)" d="m0 0h145l1 3v48l-1 94-28 1h23l5 1v292l1 1v145l-14 1h-132v-146h35l4 1v38h25l-1-60 2 2 2 9 2 13 5 35 27 1 1-12 4-26 5-1v39h24v-101h-37l-3 22-5 32-1 11h-2l-4-21-6-40v-4h-38v61h-39z" fill="#DBD9D9"/>
<path transform="translate(867,293)" d="m0 0h2v28l1 1 41-1-4 5-5 5-13 14-9 11-11 12-10 14-14 20-8 13-3 6h8l20 4 12 6 3 3 1 9v290l-1 1-7 1h-45l-33-3-29-5-27-7-36-12-24-10-15-8-10-7-14-11-16-16-13-17-11-19-2-4v-3h60v-58l5-5 6-4 9-3 17-3 12-1h18v-71h-110v-1h110v-61l8-5 35-16 63-27 39-15 4-2h3l-4-7v-2h-2l-14-19-7-9v-2z" fill="#EDC15A"/>
<path transform="translate(1752,908)" d="m0 0h145v291 2 145l-1 1h-144l-1-1v-437z" fill="#DAD8D8"/>
<path transform="translate(1017,1055)" d="m0 0h16v145l-1 2h131v144l-1 1h-46v-61h-37l-1 9-8 52-2 4-5-28-5-33v-4h-38l1 60-1 41 24-1 1-58 2 2 8 56h26l5-30 1-7 1-5 2-15 2-1v59h24v-39h46l1 1v144l-14 1h-131l-1-1v-145l-147-1v-145l10-1v-43l4-1 2 4 6 36v5l80-1h28l16 1v111z" fill="#DAD8D8"/>
<path transform="translate(1164,1201)" d="m0 0h241l53 1 48-1h97v146h-91l-1-2 2-1h19v-20h-21v-18h22v-20h-45v58l-1 3h-86v-61h-24l1 46h-2l-10-45-27-1v61h-85l-1-48-3-6-5-4-7-3-5-1h-10l-8 2-8 5-4 6-1 48-1 1h-37z" fill="#DAD8D7"/>
<path transform="translate(1009,136)" d="m0 0h11l10 3 9 6 11 14 6 7 6 3h12l11-6 11-8 10-4 9-1 14 3 8 5 7 7 3 6-1 7-6 11h49l31 4 27 6 20 6 24 10 23 12 21 14 14 11 16 15 9 10 11 15 10 18 8 17 3 8 9 27 5 22 4 25 2 21v39l-2 1-2-9-1-19-4-30-5-22-5-17-10-24-11-21-14-19-10-11v-2l-4-2-6-5-5-5-10-8-6-3v-2l-5-2-11-6-13-6-13-5-12-5-30-9-14-4-15-3-21-3-32-2h-42l-4 2-14 27-10 18-4 5h-29l3-21 4-31 2-6h-2l-1 5-16 45-4 8h-26l-4-25-3-23v-5h-2v11l-5 42h-27l-8-20-13-36 1 11 5 38v7l-47 1-8 3-6 7-2 5v10l4 7 7 6v3h-44v9h-1l-1-9 1-27-20 9h-2l14 19 7 9v2h2l4 6v3l-3 1-1 22h-1v-21l-51 20-43 19-25 11-26 12-40 20-22 12-27 15-18 11-13 9-9-2-13-5-7-3-8-3-2-1v-2l12-6 21-12 24-13 26-14 70-35 33-15 26-12 28-12 29-12 8-2-14-19-14-18-3-4 1-3 29-15 36-16 12-5 13-5 10-4-1-4-12-23-12-22-5-9v-6l6-9 10-7 9-3h15l12 5 16 11 4 2h12l7-4 9-10 8-10 8-6z" fill="#7AC061"/>
<path transform="translate(1899,321)" d="m0 0h145 4v292h-149l-1-1v-290z" fill="#DAD8D8"/>
<path transform="translate(1752,321)" d="m0 0h144l1 1v144 2 145h-145l-1-1v-144-2-144z" fill="#DBD9D9"/>
<path transform="translate(1605,321)" d="m0 0h144l1 1v291h-145l-1-1v-143-3-103z" fill="#DBD9D9"/>
<path transform="translate(137,321)" d="m0 0h144l1 2v238l-1 52h-145v-291z" fill="#DBD9D9"/>
<path transform="translate(283,321)" d="m0 0h145l1 2v289l-1 1h-145z" fill="#DBD9D9"/>
<path transform="translate(1605,1201)" d="m0 0h145v292l-10 1h-36l-100-1v-29l1-116 24 1 2 12v26h24v-32l18-66 1-3h-24l-2 11-4 23-2-1-4-18-2-15h-24l10 39 6 22h-23l-1-82v-46z" fill="#DAD8D8"/>
<path transform="translate(904,328)" d="m0 0v3l-7 10h-2l-1 4-18 27-12 20-13 24-1 4 13 1 19 5 8 5 1 2 1 259 1 12 6 12 9 6 10 3 20-1 33-7 30-8 35-11 38-13 29-11 39-16-2-4-12-17-12-16 1-3 38-15 24-10 32-14 49-22 15-7 22-11 12-7 16-8 27-15 28-17 6-4 7 1 31 12v2l-14 9-32 17-22 12-47 24-28 14-28 13-24 11-34 15-32 14-11 5h-3l3 5 14 18 9 12 5 6v2l-30 15-27 12-19 8-44 16-34 10-30 8-36 8-34 6-44 5-49 3h-22l-31-3-23-4-20-5-23-8-20-9-19-10-18-12-14-11-12-11-9-9-11-14-7-10-12-23-7-16-7-21-4-15-6-33-3-22-1-19v-14l1-17 2 1 4 49 4 18 4 19 6 19 5 12 10 21 12 19 8 10 9 10 10 10 13 10 18 11 15 7 26 10 32 10 25 6 24 4 33 3h45l7-1v-296l-3-5-12-6-20-4-8-1 1-4 7-12 16-23 12-16 10-11 9-11z" fill="#497D41"/>
<path transform="translate(1311,908)" d="m0 0h145v121h-17l-1 171-95 1-2-7-21-147-2-18-7-1z" fill="#DAD8D7"/>
<path transform="translate(588,634)" d="m0 0 3 4 12 24 9 13 8 10 1 6 7 9 9 10 7 8 12 11 16 11 17 10 24 11 24 8 25 6 24 4 17 2 32 2 5 5-2 6h2l1 7 1 4 1 8-1 4v26l-2 6v21l-1 3v11l1 2-1 2 4 2v1h-9l-28-5-25-7-23-8-23-10-13-7v53h-93l-53-1 1-145h70l-7-12-12-20-7-12-8-17-5-10-13-31-6-16z" fill="#EEC25A"/>
<path transform="translate(1442,174)" d="m0 0h14l1 1v60l1-61h143l2 1v145h-202l-3-10-8-19-4-11-7-15-11-23-13-23-13-21-12-18-2-5z" fill="#DBD9D8"/>
<path transform="translate(1458,908)" d="m0 0h145v145h-79v2l57-1h22v146h-99l2-2 10-5 8-9 3-9v-47l-4-10-8-9 7-12v-45l-6-10-7-6-12-5-7-1-33-1z" fill="#DAD8D8"/>
<path transform="translate(430,174)" d="m0 0h145l1 2-1 116h2v-118l107 1-2 5-8 12-12 19-15 26-17 33-13 27-9 22-1 1h-177z" fill="#DBD9D9"/>
<path transform="translate(1456,1027)" d="m0 0 1 2h33l10 2 12 6 8 9 3 6v45l-6 10v3l7 8 4 10v47l-3 9-9 10-10 5-5 2-7 1h-36v20h-1v-20h-222l7-49 9-64 9-60h58l4 24 21 147h95v-167l1-4h17z" fill="#1A4624"/>
<path transform="translate(724,468)" d="m0 0h28l1 73 19 5 5 3 1 2 3 1 1 3v169l1 5h-10l-23-5-39-12-21-8-18-8-14-8-11-8-11-9-15-15-13-17-11-19-2-4v-3h60v-58l5-5 6-4 9-3 17-3 12-1h19v-58z" fill="#EEC15A"/>
<path transform="translate(1898)" d="m0 0h150v173l-39 1-111-1v-145-2z" fill="#DAD8D8"/>
<path transform="translate(136)" d="m0 0h146v26l-5 1 5 2v107l-1 37-25 1h-23l-97-1v-145-2z" fill="#DBD9D9"/>
<path transform="translate(1604)" d="m0 0h146v26l-4 1 4 1v145l-23 1h-25l-98-1v-128l1-18-1-1z" fill="#DBD9D9"/>
<path transform="translate(870)" d="m0 0h293v26 2 40l-2 3-23-3-33-2h-30l-28 2-21 2-32 5-36 8-30 8-38 12-20 7v-82-2z" fill="#DAD8D8"/>
<path transform="translate(1e3 404)" d="m0 0h20v25l9 1 18 6 12 8 8 8 7 11 5 15v7l-25 4h-7l-3-12-5-10-8-6-11-5 1 69 20 6 16 7 10 7 7 8 6 10 4 12 2 11v8l-4 16-5 12-10 13-10 8-16 8-15 4h-6l1 11v15h-21v-26h-7l-15-4-16-8-10-8-8-11-5-10-5-19v-6l6-2 21-4h5l4 17 4 10 9 10 10 6 7 3-1-78-16-5-16-7-10-7-8-8-7-14-3-11v-20l4-13 6-11 8-9h2v-2l11-7 10-4 14-4h6z" fill="#1A4724"/>
<path transform="translate(1898,614)" d="m0 0h150v146h-149l-1-1z" fill="#DAD8D8"/>
<path transform="translate(1898,761)" d="m0 0h150v146h-149l-1-1z" fill="#DAD8D8"/>
<path transform="translate(1899,174)" d="m0 0h144 3 2v146h-150v-145z" fill="#DAD8D8"/>
<path transform="translate(1752,27)" d="m0 0h144l1 1v145l-32 1-114-1v-144z" fill="#DBD9D9"/>
<path transform="translate(1751,614)" d="m0 0h146v146h-146z" fill="#DBD9D9"/>
<path transform="translate(1752,761)" d="m0 0h145v146h-145l-1-1v-144z" fill="#DBD9D9"/>
<path transform="translate(1605,1054)" d="m0 0h144l1 1v144l-1 1h-144l-1-1v-143z" fill="#DBD9D9"/>
<path transform="translate(136,761)" d="m0 0h145l1 2v103l-1 41h-145z" fill="#DBD9D9"/>
<path transform="translate(136,614)" d="m0 0h145l1 8v100l-1 38h-145z" fill="#DBD9D9"/>
<path transform="translate(1605,614)" d="m0 0h145v146h-146v-143z" fill="#DBD9D9"/>
<path transform="translate(283,27)" d="m0 0h145l1 2v71l-1 73-32 1-113-1z" fill="#DBD9D9"/>
<path transform="translate(136,1201)" d="m0 0h145l1 10v81l-1 55h-140l-5-1z" fill="#DBD9D9"/>
<path transform="translate(283,614)" d="m0 0h145l1 3v69l-1 74h-145z" fill="#DBD9D9"/>
<path transform="translate(136,1054)" d="m0 0h145l1 4v89l-1 53h-122l-23-1z" fill="#DBD9D9"/>
<path transform="translate(1605,761)" d="m0 0h144l1 1v145h-145l-1-1v-143z" fill="#DBD9D9"/>
<path transform="translate(870,1348)" d="m0 0h146v145l-5 1h-47l-94-1z" fill="#DBD9D9"/>
<path transform="translate(1458,614)" d="m0 0h145v146h-145l-1-1v-79z" fill="#DBD9D9"/>
<path transform="translate(283,761)" d="m0 0h145l1 3v59l-1 84h-145z" fill="#DBD9D9"/>
<path transform="translate(1458,27)" d="m0 0h145v146h-146v-27z" fill="#DBD9D9"/>
<path transform="translate(1752,174)" d="m0 0h144l1 1v145h-146v-145z" fill="#DBD9D9"/>
<path transform="translate(430,27)" d="m0 0h145l1 1-1 145h-145z" fill="#DBD9D9"/>
<path transform="translate(430,614)" d="m0 0h85l61 1v118l-1 27h-145z" fill="#DBD9D9"/>
<path transform="translate(1521,467)" d="m0 0h82v146h-146v-70l1-75z" fill="#DBD9D9"/>
<path transform="translate(1751,1348)" d="m0 0h146v145l-145 1-1-1z" fill="#DBD9D9"/>
<path transform="translate(136,1348)" d="m0 0h145l1 11v92l-1 42-7 1h-41l-97-1z" fill="#DBD9D9"/>
<path transform="translate(136,174)" d="m0 0 145 1 1 1v102l-1 42h-145z" fill="#DBD9D9"/>
<path transform="translate(430,761)" d="m0 0h145v145l-1 1h-144z" fill="#DBD9D9"/>
<path transform="translate(1605,908)" d="m0 0h145v145h-145l-1-1v-99z" fill="#DBD9D9"/>
<path transform="translate(136,908)" d="m0 0h145l1 1v92l-1 52h-145z" fill="#DBD9D9"/>
<path transform="translate(1605,174)" d="m0 0 145 1v145h-146v-143z" fill="#DBD9D9"/>
<path transform="translate(1459,321)" d="m0 0h143l1 1v144l-86 1h-59l-1-1v-37l1-107z" fill="#DBD9D9"/>
<path transform="translate(283,174)" d="m0 0h143l2 1 1 3v68l-1 74h-145z" fill="#DBD9D9"/>
<path transform="translate(1458,761)" d="m0 0h145v146h-65l-80-1z" fill="#DBD9D9"/>
<path transform="translate(1135,69)" d="m0 0h21l32 6 23 6 15 5 12 5 14 6 17 9 9 7 7 7 9 11 10 12 4 5 2 1 5 9 10 14 6 8 17 26 13 22 10 18 11 23 5 11 6 16 7 16 1 7-3-1-11-21-8-12-9-11-9-10-14-13-16-12-19-12-25-13-26-10-26-7-28-5-18-2-49-1 2-5 4-8 2-12-5-10-1-13 1-4-1-10v-10l2-16 1-4 1-6-3-1v-7h2v-3h-2l1-4-5-1-4-4z" fill="#EFC25A"/>
<path transform="translate(1312,27)" d="m0 0h144l1 1-1 145h-131l-13-18-2-5 1-122z" fill="#DBD9D8"/>
<path transform="translate(1320,761)" d="m0 0h136v145h-145v-131z" fill="#DBD9D9"/>
<path transform="translate(724)" d="m0 0h145v111l-37 15-27 12-29 14-19 10-20 11-7-1-8-11 1-103 1-31-1-1v-12z" fill="#DBD9D9"/>
<path transform="translate(577,27)" d="m0 0h145v133l-5-5-7-8-4 1-13 16-6 9h-111z" fill="#DBD9D9"/>
<path transform="translate(871,908)" d="m0 0h145v145l-1 1h-86l-7-13-10-7-9-3-6-1-27-1v-103z" fill="#DBD9D8"/>
<path transform="translate(1164,908)" d="m0 0h145l1 1v119l-2 1h-48l-1 13-2 12h-67l-26-1z" fill="#DAD8D8"/>
<path transform="translate(0,614)" d="m0 0h135v145l-1 1h-134z" fill="#DBD9D9"/>
<path transform="translate(0,27)" d="m0 0h134l1 1v145h-135z" fill="#DBD9D9"/>
<path transform="translate(724,1348)" d="m0 0h64v39h46v-20h-22v-15l1-4h56v145h-146v-62z" fill="#DBD9D8"/>
<path transform="translate(0,467)" d="m0 0h134l1 1v124l-1 21h-134z" fill="#DBD9D9"/>
<path transform="translate(0,761)" d="m0 0h134l1 1v144l-1 1h-134z" fill="#DBD9D9"/>
<path transform="translate(1458,1348)" d="m0 0h29l1 1v22l-1 16h46v-20h-21v-19h91v145l-11 1-134-1z" fill="#DBD8D8"/>
<path transform="translate(0,174)" d="m0 0h134l1 1v131l-1 14h-134z" fill="#DBD9D9"/>
<path transform="translate(1018,908)" d="m0 0h145v145l-9 1h-15v-25h-40v86l-2-1-5-24-10-43-3-14v-4h-46v25h-15l-1-1v-144z" fill="#DAD8D8"/>
<path transform="translate(0,1348)" d="m0 0h135v129l-1 16h-134z" fill="#DBD9D9"/>
<path transform="translate(0,321)" d="m0 0h134l1 1v119l-1 25h-134z" fill="#DBD9D9"/>
<path transform="translate(430,908)" d="m0 0h145v145l-12 1h-20v-25h-77v24l-1 1h-16l-19-1z" fill="#DAD8D8"/>
<path transform="translate(1047,741)" d="m0 0 5 1 1 9 3 4 1 14-1 8 1 9 2 22 1 5 1 31 4 8-2 5-5 6-5 5-1 5-30 7h-6v27h-145l-1-2v-11l61-1-2-5-1-3-4-4-1-6 2-8 1-19v-25l-1-17-2-13v-9l6-9 5-3 47-12 31-9 27-9z" fill="#FDEC9A"/>
<path transform="translate(1164,1348)" d="m0 0h37l1 1 1 25 4 7 8 5 5 1h16l12-6 4-5 1-4 1-24h56v145h-146z" fill="#DAD8D8"/>
<path transform="translate(577,1348)" d="m0 0h66l1 1v38l24-1v-25l4 2 10 22 1 1 25 1-18-37v-2h32v145h-145z" fill="#DAD8D8"/>
<path transform="translate(430,1348)" d="m0 0h75l-3 25-2 14h24v-13l1-1h12l1 13 24 1-5-39h19l-1 145h-145z" fill="#DBD8D8"/>
<path transform="translate(1363,1340)" d="m0 0 2 1 2 10 7 33v3h27v-39h55v145h-145v-145h27l1 1v38h24z" fill="#DBD9D9"/>
<path transform="translate(577,1201)" d="m0 0 147 1v145h-35l-6-11 1-7 11-22 9-20-25-1-2 6-4 8-3 7h-2v-21h-24v61h-67z" fill="#DAD7D7"/>
<path transform="translate(430,1201)" d="m0 0h145l1 145-1 1h-18l-3-16-6-42v-3h-34l-2 17-6 42-1 2h-75z" fill="#DAD8D8"/>
<path transform="translate(1075,65)" d="m0 0h30l33 2 10 1v1h-13v2l3 1 3 3 3 1-1 4h2v3h-2l1 7 2 1 1 4-2 3v7l-2 16v10l1 8-1 7 2 10 4 9-1 7-3-3-4-6-8-7-11-4-9-1-10 2-10 5-13 9-6 3h-12l-8-5-10-12-7-9-12-6-5-1h-11l-11 3-9 7-11 14-9 8-3 1h-12l-10-6-10-7-16-7v-6l3-7v-7l-3-9v-9l3-5 2-7 3-3 14-7-5-1 4-2 36-9 36-7 36-4z" fill="#FCEB99"/>
<path transform="translate(1164,322)" d="m0 0h146v33l-1 112h-88l-10-19-12-21-14-23-8-11-14-20z" fill="#DBD9D9"/>
<path transform="translate(1045,1328)" d="m0 0 2 2 8 56h26l5-30 1-7 1-5 2-15 2-1v59h24v-39h46l1 1v144l-14 1h-131l-1-1v-118l3-1v13l24-1z" fill="#DAD8D8"/>
<path transform="translate(577,761)" d="m0 0h71l10 19 13 15 12 16 11 14 13 15 11 11 4 3v53h-93l-53-1z" fill="#DBD9D8"/>
<path transform="translate(1033,1029)" d="m0 0h46l6 27 6 25 7 33 1-85h40l1 26-1 146h-45l-4-15-15-66-1-4-1 85h-40l-1-147z" fill="#194523"/>
<path transform="translate(723,1053)" d="m0 0h117v149h-96l-2-8-7-49-12-86z" fill="#D9D7D6"/>
<path transform="translate(1322,1055)" d="m0 0h116v145l-95 1-2-7-19-133z" fill="#DBD9D8"/>
<path transform="translate(869,964)" d="m0 0h1v65h27l12 3 8 4 6 5 6 12 1 9v68l-3 9-5 6 2 11 9 35 2 11h-43l-7-41-1-3h-3v44h-41l-1-148 1-25h29z" fill="#194624"/>
<path transform="translate(1309,779)" d="m0 0h1l-1 127-1 1h-144v-76l17-7 22-10 19-10 21-11 12-7h4l11 14 9 11 4 3 13-17 11-16z" fill="#DBD9D8"/>
<path transform="translate(1223,1284)" d="m0 0h10l10 3 6 4 4 5 1 3v48h85v-61h27l2 5 7 32 1 9h2l-1-11v-35h24v61h86l1-61h45v20h-22v18h21v20l-21 1v22h22v20h-46v-38h-30l-56-1v39h-27l-8-36-2-10-1 46h-24l-1-38h-28l-56-1v24l-3 7-6 5-9 4h-16l-6-2-9-6-3-6-1-28 1-48 6-8 9-5z" fill="#1A4724"/>
<path transform="translate(1311,322)" d="m0 0h72l10 17 10 21 7 19 6 23 4 23 2 17 1 25h-111l-1-1z" fill="#DAD8D8"/>
<path transform="translate(661,1029)" d="m0 0h59l6 45 12 85 6 43h-108l7-49 9-64 7-48z" fill="#194624"/>
<path transform="translate(1260,1029)" d="m0 0h58l4 24 19 133 2 16h-108l7-49 9-64z" fill="#194623"/>
<path transform="translate(1439,614)" d="m0 0h17v146h-134l4-8 15-25 15-28 14-29 15-35 7-20z" fill="#DBD9D9"/>
<path transform="translate(514,1286)" d="m0 0h34l2 8 7 50v3h87v-61h24v21h2l1-4 4-10 4-7h26l-4 10-17 35v5l5 10 99 1v-61h46v20h-22v18h20v20h-20v23h22v20h-46v-39l-65 1-33-1 12 24 6 13v2h-25l-3-4-9-20-3-2v25l-4 1h-20l-1-38h-67l-19-1 2 10 3 21v8h-24l-1-1v-13l-12 1-1 13h-24l1-14 3-22 1-3h-75l-1 2v-2h-5v-1h81l7-51z" fill="#1A4724"/>
<path transform="translate(911,235)" d="m0 0h4l17 33-2 2-30 11-27 11-2 1-1 36h-1l-1-9 1-27-20 9h-2l14 19 7 9v2h2l4 6v3l-3 1-1 22h-1v-21l-51 20-43 19-25 11-26 12-40 20-22 12-27 15-18 11-13 9-9-2-13-5-7-3-8-3-2-1v-2l12-6 21-12 24-13 26-14 70-35 33-15 26-12 28-12 29-12 8-2-14-19-14-18-3-4 1-3 29-15 36-16 12-5 13-5z" fill="#396F38"/>
<path transform="translate(930,1055)" d="m0 0h86v145l-81 1-2-4-6-26-5-18-1-8 6-8 2-7z" fill="#DBD9D9"/>
<path transform="translate(1165,225)" d="m0 0 32 2 26 4 22 5 28 9 15 5 11 5 9 4 2 1v59l-1 1h-145v-94z" fill="#DAD8D8"/>
<path transform="translate(1164,1055)" d="m0 0h92l-1 14-15 105-4 26-2 1-70-1z" fill="#DBD8D8"/>
<path transform="translate(874,590)" d="m0 0 3 1 1 49v93l-1 1-7 1h-45l-33-3-6-1v-16h47l13-2 12-4 14-7 3-2-9 3-14 3-7 1h-50l-9-1v-29l20 1h22l15-2 16-5 14-7 1-1-2-1v2l-17 5-17 2h-52l-1-25v-38l1-12h1v7l27 1h13l16-2 10-2v-2l18-6z" fill="#EEC15A"/>
<path transform="translate(1139,189)" d="m0 0h50l31 4 27 6 20 6 24 10 23 12 21 14 14 11 16 15 9 10 11 15 10 18 8 17 3 8 9 27 5 22 4 25 2 21v39l-2 1-2-9-1-19-4-30-5-22-5-17-10-24-11-21-14-19-10-11v-2l-4-2-6-5-5-5-10-8-6-3v-2l-5-2-11-6-13-6-13-5-12-5-30-9-14-4-15-3-21-3-32-2-44-1 2-6 13-26z" fill="#1C4A26"/>
<path transform="translate(466,1029)" d="m0 0h77l1 26-1 7h-37v33h35v33h-35l1 40 36 1v32h-77l-1-148z" fill="#194624"/>
<path transform="translate(1311,468)" d="m0 0h111l3 1 2-1h29l1 1-1 144h-62l3-11 12-35 10-35 5-24 1-7-6-1-28-11-7 1-14 9-22 13-25 14-9 5h-3z" fill="#DAD8D8"/>
<path transform="translate(577,1055)" d="m0 0h80l-1 15-7 47-9 65-3 18h-60z" fill="#DBD8D8"/>
<path transform="translate(1069,220)" d="m0 0h2l-7 50-2 8h44l9 2 6 4 4 5 2 4v11l-3 6-9 8-2 1h-197l-8-6-5-6-1-3v-10l4-8 5-5 8-3h47l-6-45-1-5v-7l2 1 17 47 3 9h27l1-16 4-37h2l7 49v4l26-1 9-24 10-28z" fill="#1A4724"/>
<path transform="translate(1165,27)" d="m0 0h144l1 1v120h-3l-11-13-9-11-11-12-14-9-19-9-16-6-10-4-24-7-29-6v-43z" fill="#DBD9D8"/>
<path transform="translate(1386,488)" d="m0 0 7 1 31 12v2l-14 9-32 17-22 12-47 24-28 14-28 13-24 11-34 15-32 14-11 5h-3l3 5 14 18 9 12 5 6v2l-6 3-2-1 3-3-5-5-9-6-10-5-7-5v-2l-4-2-12-17-12-16 1-3 38-15 24-10 32-14 49-22 15-7 22-11 12-7 16-8 27-15 28-17z" fill="#396F38"/>
<path transform="translate(867,293)" d="m0 0h2v28l1 1 41-1-4 5-5 5-13 14-9 11-11 12-10 14-14 20-8 13-3 5-39 1-19 3-13 4-8 5-2 2-1 32h-28l-1-2v-60l16-8 33-15 30-13 31-13 34-13 4-2h3l-4-7v-2h-2l-14-19-7-9v-2z" fill="#DAD8D8"/>
<path transform="translate(1020,1286)" d="m0 0h38l10 60 1 1 8-52 2-9h37v101h-24l-1-58-2 19-1 1-5 33-2 5h-26l-1-1-5-36-3-20-1 56-1 1h-24z" fill="#194624"/>
<path transform="translate(323,1286)" d="m0 0h37l5 31 5 30v4h2v-11l8-51 1-3h37v101h-24v-39l-4 1-6 38h-27l-1-1-5-35-2-13-2-9v58h-25z" fill="#1A4724"/>
<path transform="translate(1750)" d="m0 0h148v26h91v1l-90 1-1 145h150l-2 2-1 32h-1l-1-32h-144l-1 145h150l-2 2-1 30h-1v-31l-145 1v290l149 1-3 1v30h-1v-30h-146l1 145 149 1-3 1v33h-1v-33h-146l1 145h145l4 2h-3v31h-1v-31l-145 1v145l-1 144h-1v-144l-4-1h4v-145l-146 1-1-2-1-441 1-438-23-1v-1h23zm2 27-1 2v144l120 1 26-1v-145l-1-1zm0 147-1 1v145h146v-145l-1-1zm0 147-1 1v144 2 144l1 1h145v-145-2-144l-1-1zm-1 293v146h146v-146zm1 147-1 1v144l1 1h145v-146z" fill="#A69575"/>
<path transform="translate(543,1055)" d="m0 0h32v145l-31 1v-33h-38v-40h35v-33h-35v-33h37z" fill="#DAD8D8"/>
<path transform="translate(1075,65)" d="m0 0h30l33 2 10 1v1h-13v2l3 1 3 3 3 1-1 4h2v3h-2l1 7 2 1 1 4-2 3v7l-2 16v10l1 8-1 7 2 10 4 9-1 7-3-3-4-6-8-7-11-4-9-1-10 2-10 5-13 9-6 3-3-1v-2l-5-4-1-9v-25l-2-22 2-8-3-1-1-3v-11l-3-9 1-5 2-3 11-1z" fill="#FADD72"/>
<path transform="translate(1162,832)" d="m0 0h1v74l-1 1h-145l-1-27 28-6 29-8 36-12 33-13z" fill="#DBD9D9"/>
<path transform="translate(565,485)" d="m0 0 2 1 4 49 4 18 4 19 6 19 5 12 10 21 12 19 8 10 9 10 10 10 13 10 18 11 15 7 26 10 32 10 20 5v2h-9l-7-1-14-1-6 1v3l3 1-1 6-1 7 2 1 2 4-5 1-3-1v2l6 1 19 6 18 4v2h7l19 3v1h-13l-23-4-20-5-23-8-20-9-19-10-18-12-14-11-12-11-9-9-11-14-7-10-12-23-7-16-7-21-4-15-6-33-3-22-1-19v-14z" fill="#1E4B27"/>
<path transform="translate(772,546)" d="m0 0 5 1 7 5 1 7 13 1 11 1h33l11-2 13-4 9-4v4h2l1 22-1 14-5 1-12 5-7 1v2l-14 4-12 1h-13l-25-1-2-1-1 5v45l1 17h51l17-2 13-4h4v-2l3 1-9 6-12 5-16 4-10 1h-22l-18-1-2-1v29h59l17-3 11-4 3 1-10 6-10 5-14 4-9 1h-29l-18-1v15h-7l4-1-2-5v-172l-4-1-3-3z" fill="#EDC15A"/>
<path transform="translate(904,328)" d="m0 0v3l-7 10h-2l-1 4-18 27-12 20-13 24-1 4 13 1 19 5 8 5 1 2 1 259 1 12 6 12 9 6 10 3 14 1v1l-29 4-21 2-4 1-1-8v-289l-3-5-12-6-20-4-8-1 1-4 7-12 16-23 12-16 10-11 9-11z" fill="#2E5D2F"/>
<path transform="translate(1222,468)" d="m0 0h88v63l-4 4-33 17-13 6h-3l-13-38-11-26-9-20z" fill="#DAD8D8"/>
<path transform="translate(1402,322)" d="m0 0h55v57l-1 88h-29l-1-1-1-36-3-29-5-25-4-17-8-24-3-8z" fill="#DAD8D8"/>
<path transform="translate(724,468)" d="m0 0h28l1 73 19 5 5 3 3 3v8l-10 5-16 4-26 3h-23l-18-2-20-4-8-4v-2h-2l-1 52h-1v-57l5-5 6-4 9-3 17-3 12-1h19v-58z" fill="#FADC72"/>
<path transform="translate(1223,1284)" d="m0 0h10l10 3 6 4 4 5 1 3v48h84v1l-28 1-56-1v24l-3 7-6 5-9 4h-16l-6-2-9-6-3-6-1-28 1-48 6-8 9-5z" fill="#194624"/>
<path transform="translate(430,1055)" d="m0 0h35v146l-35-1z" fill="#DBD9D9"/>
<path transform="translate(514,1286)" d="m0 0h34l2 8 7 50v3h86v1l-67 1-19-1 2 10 3 21v8h-24l-1-1v-13l-12 1-1 13h-24l1-14 3-22 1-3h-75l-1 2v-2h-5v-1h81l7-51z" fill="#1B4825"/>
<path transform="translate(577,615)" d="m0 0h5l6 16 2 12 10 26 13 30 8 15 6 12 17 28 2 6h-69l-1-2z" fill="#DAD8D8"/>
<path transform="translate(1163,226)" d="m0 0h1v94l145-1 1-58 5 1 16 9v2l4 1 11 8 6 5 5 5 5 4 7 8 13 17v1h-71l1 144 111 1v3l-1-1-111-1 1 64-3-1v-22l1-41h-19v-1h18v-112l1-33h-146v50l-3-1-11-14-13-15-14-15-7-6v-1h47z" fill="#DAD8D7"/>
<path transform="translate(1139,189)" d="m0 0h50l31 4 19 4-3 1 3 3 13 5 5 3v2l3 1-1 4-2 1-1 5h-3l3 4 1 5-8 2-16-2-5-1-10-1-6-1v2l-15-2-32-2-44-1 2-6 13-26z" fill="#3A6F38"/>
<path transform="translate(733,725)" d="m0 0 18 1 3 1h14l24 4 33 3 50 1-4 4-17 2-9 2-11 2-1 4 2 3v2l-3 3h-3v3l9 3 16 1h17l5 1 38-3h8l-4 2-36 4-49 3h-22l-23-2-4-2-17-3v-2l-10-1-15-4-18-6v-2l6-1 1 1 1-2-4-2-1-6 2-5v-3l-2-1v-3z" fill="#396F38"/>
<path transform="translate(723,855)" d="m0 0 6 2 19 9 24 9 19 6 20 5 31 5 27 3v13h-145l-1-1z" fill="#DBD9D8"/>
<path transform="translate(1898,1495)" d="m0 0h146v27h-146z" fill="#DBD9D9"/>
<path transform="translate(1751,1495)" d="m0 0h146v27h-146z" fill="#DBD9D9"/>
<path transform="translate(1604,1495)" d="m0 0h146v27h-146z" fill="#DBD9D9"/>
<path transform="translate(1017,1495)" d="m0 0h146v27h-146z" fill="#DBD9D9"/>
<path transform="translate(870,1495)" d="m0 0h146v27h-146z" fill="#DBD9D9"/>
<path transform="translate(724,1495)" d="m0 0h145v27h-146v-17z" fill="#DBD9D9"/>
<path transform="translate(1164,1495)" d="m0 0h146v14l-1 13h-145z" fill="#DBD9D9"/>
<path transform="translate(1458,1495)" d="m0 0h145v27h-145z" fill="#DBD9D9"/>
<path transform="translate(1311,1495)" d="m0 0h145v27h-145z" fill="#DBD9D9"/>
<path transform="translate(577,1495)" d="m0 0h145v27h-145z" fill="#DBD9D9"/>
<path transform="translate(430,1495)" d="m0 0h145v27h-145z" fill="#DBD9D9"/>
<path transform="translate(283,1495)" d="m0 0h145v27h-145z" fill="#DBD9D9"/>
<path transform="translate(136,1495)" d="m0 0h145v27h-145z" fill="#DBD9D9"/>
<path transform="translate(911,235)" d="m0 0h4l17 33-2 2-30 11-27 11-2 1-1 36h-1l-1-9 1-27-20 9-6-1-7-5-11-6-9-6v-2h-2v-2l-2-1 29-15 36-16 12-5 13-5z" fill="#4A7D42"/>
<path transform="translate(1164)" d="m0 0h146v26l-108 1h-27l-11-1z" fill="#DBD9D9"/>
<path transform="translate(1751)" d="m0 0h146v26h-146z" fill="#DBD9D9"/>
<path transform="translate(430)" d="m0 0h146v26h-146z" fill="#DBD9D9"/>
<path transform="translate(283)" d="m0 0h146v26h-146z" fill="#DBD9D9"/>
<path transform="translate(1311)" d="m0 0h146l-1 26h-145z" fill="#DBD9D9"/>
<path transform="translate(1458)" d="m0 0h145v26h-145z" fill="#DBD9D9"/>
<path transform="translate(577)" d="m0 0h145v26h-145z" fill="#DBD9D9"/>
<path transform="translate(1,1494)" d="m0 0 133 1 1 1v13l-1 13h-134v-27z" fill="#DBD9D9"/>
<path transform="translate(1612,1286)" d="m0 0h24l3 15 4 18 5-27 2-6h24l-2 10-16 59-1 32h-24l-1-26-1-12h-2l-2-10-13-48z" fill="#194624"/>
<path transform="translate(0)" d="m0 0h135v26h-135z" fill="#DBD9D9"/>
<path transform="translate(1139,1055)" d="m0 0h24v145h-24z" fill="#D9D6D5"/>
<path transform="translate(874,590)" d="m0 0 3 1v37h-3l-7 3h-3v2l-21 7-15 2h-22l-18-1-2-1-1-32 1-12h1v7l27 1h13l16-2 10-2v-2l18-6z" fill="#EDC15A"/>
<path transform="translate(795,420)" d="m0 0h39l24 4 13 5 6 5v8l-8 3-18 5-24 3h-31l-20-3-17-5-5-4-1 26h-1v-32l7-6 9-4 13-3z" fill="#FADC71"/>
<path transform="translate(801,1288)" d="m0 0 22 2 7 4-2 9-1 1 7 1v1h-22v18h20v20h-20v23h22v20h-46v-1h45l-1-8-4 7h-28l-6-4-3-6-1-12v-69l5-5z" fill="#194624"/>
<path transform="translate(1386,488)" d="m0 0 7 1 31 12v2l-14 9-32 17-22 12-47 24-10 5-5-1 5-4 12-7h2v-2l7-4h2v-2l5-3h2v-2h3v-2l1-1-1-2v-3l1-5-7 1h-2l-13 3-4 2-4-1 3-3 23-12 21-12 30-18z" fill="#20512A"/>
<path transform="translate(698,386)" d="m0 0h3l-1 4h-3l-2 3-8 4-19 11-5 2-1 2-6 7-1 6-2 6 12-3 13-5 6-3 7-1 5-3v3l-25 13-23 13-18 10-13 8-13 9-9-2-13-5-7-3-8-3-2-1v-2l12-6 21-12 24-13 26-14z" fill="#205129"/>
<path transform="translate(642,688)" d="m0 0 3 1v2h8l7 2 3 1v2l10 1 5 1 27 11 38 12 20 5v2h-9l-7-1-14-1-6 1v3l3 1-1 6-1 7 2 1 2 4-5 1-3-1v2l6 1 19 6 18 4v2h7l19 3v1h-13l-23-4-20-5-23-8-20-9-19-10 1-2-3-3v-2h-2v-2l-4-1-10-8-4-5v-2l-3-1-6-8-3-7z" fill="#2D5C2F"/>
<path transform="translate(1497,1289)" d="m0 0h16l11 1 7 5-1 4-3 5 6 1v1h-22v18h21v20l-21 1v24h7l7 2 5 3 1 4-4 7h-27l-6-3-1-4-2-1v-14l-1-32v-34l3-6z" fill="#194624"/>
<path transform="translate(1236,198)" d="m0 0h7l24 7 24 10 4 3v2l10 6 1 3 5 2 11 8 6 5v2h2l2 2 1 3 3 1 4 8v5l-9 1-1-2-4 2v2l-4-1-8-5-8-3-8-4-17-6-8-3-32-10-29-6v-2h11l9 1 7 2 10 1 2 1 1-2 2 1 1-2h1l-2-5-1-3h3v-5l3-2v-3l-2-1v-2l-4-1-11-5-6-3z" fill="#2D5C2F"/>
<path transform="translate(1146,176)" d="m0 0 30 1 17 1 28 4 23 5 27 8 21 9 19 10 18 12 13 10 11 10 7 8 8 10 5 9 1 3-4-2-9-10-14-13-16-12-19-12-25-13-26-10-26-7-28-5-18-2-49-1 2-5z" fill="#F7DA71"/>
<path transform="translate(596,614)" d="m0 0 59 1v70l-4-2-14-11-16-16-13-17-11-19z" fill="#DAD8D7"/>
<path transform="translate(782,347)" d="m0 0h2l-2 4h-2v2l-16 8-5 1v2l-17 9-4 2-2 3h-2l-1 7-4 7h8l8-1 6-1 20-9 2 1-16 8-33 15-16 8-11 5h-4l-4 2-2-1-1 2-7 2-6 3-13 4-7 2-1-3 3-9 4-6 4-4 14-8 15-9 3-1 3-3h2v-4l33-16 33-15z" fill="#2D5C2F"/>
<path transform="translate(1017,1055)" d="m0 0h16v145l-2 1-14-1z" fill="#D8D5D4"/>
<path transform="translate(428,28)" d="m0 0h2v145h143v1l-25 1-118-1v146h145v-11h1v11h31v2h-30v20l-1 62h-1v-82h-36l-109-1v292h146l-1-10 3-2 3 10v4h-4v28h-1v-28h-61l-85-1v72h-1l-1-72h-145v-1l145-1v-291h-145v-1h145v-145h-131l-14-1v-1h145z" fill="#A79575"/>
<path transform="translate(772,546)" d="m0 0 5 1 7 5 1 7 13 1 11 1h33l11-2 13-4 5-1-1 2-14 5h-4v2l-18 4h-48v86l1 17h51l17-2 13-4h4v-2l3 1-9 6-12 5-16 4-10 1h-22l-18-1-2-1v29h59l17-3 11-4 3 1-10 6-10 5-14 4-9 1h-29l-18-1v15h-7l4-1-2-5v-172l-4-1-3-3z" fill="#A49473"/>
<path transform="translate(1163,226)" d="m0 0h1v94l145-1 1-58h1v59h70l1 2h-71l1 144 111 1v3l-1-1-111-1 1 64-3-1v-22l1-41h-19v-1h18v-112l1-33h-146v50l-3-1-11-14-13-15-14-15-7-6v-1h47z" fill="#A79575"/>
<path transform="translate(1014,881)" d="m0 0h2v26h-145l-1-2v-11h50l21-1 31-4 32-6z" fill="#DBD9D9"/>
<path transform="translate(724,468)" d="m0 0h28l1 73-5 1-25-3v-58z" fill="#DBD9D9"/>
<path transform="translate(1325,531)" d="m0 0 2 1h6l1 6v3 2h-2v2h-3v2h-2l-1 2-4 1v2l-7 4h-2v2l-16 9-2 2 2 2-35 17-33 15-18 8-4-1 8-4 5-2 2-2 7-3 1-2 12-6h2v-2l10-5h2l1-2 3-2h3v-2h2l-2-6 2-8h-2v-2h-5v-3l3-3 18-8 23-12 7 1 4-2 11-3z" fill="#2D5C2F"/>
<path transform="translate(1171,600)" d="m0 0 8 1-1 2 2 2-3 2-2 5-3 7-3 1v2l-16 8-2 3h-2v3l3 1h-3l3 5 14 18 9 12 5 6v2l-6 3-2-1 3-3-5-5-9-6-10-5-7-5v-2l-4-2-12-17-12-16 1-3 30-12 8-1 14-4z" fill="#497D41"/>
<path transform="translate(1026,555)" d="m0 0 14 6 10 7 5 7 3 11v9l-2 9-4 8-8 9-14 7-5 1v-73z" fill="#7AC161"/>
<path transform="translate(1294,218)" d="m0 0 5 1 20 11 16 11 14 11 5 5 2 5 4 4 3 5v2h2l7 10 7 12 4 7 7 10 3 6 6 11 3 8 3 11v6l-3-3-1-2-3-7-2-5-1-5h-2l-7-13-2-4h-2l-5-8v-2h-2l-3-4v-2h-2l-3-3v-2l-6-2-2 3-7-6-5-5-10-8-6-3v-2l-5-2-1-4 5-1 5 1 4-1-1-7-3-5-5-4v-2h-2l-5-5-10-8-7-4-5-5-7-4z" fill="#20512A"/>
<path transform="translate(466,1029)" d="m0 0h77l1 26-1 7h-37v-1l16-3 13-1 3-1 1-12v-5l-4-4-9-1h-55l-1 7-1 5 1 37 1 6-1 34 1 37v36l18 2h39l10-2 2-5v-9l-1-6-7-4-10-1h-14l-2-2h37v32h-77l-1-148z" fill="#103519"/>
<path transform="translate(1456,1348)" d="m0 0 2 1v144h145v2h-145v27h-2v-27h-145v27h-2v-13l1-14h-146v-2l145-1v-134l1-9h1v144h145z" fill="#A79575"/>
<path transform="translate(1e3 455)" d="m0 0h3v66l-5-1-12-6-5-5-4-5-3-7-1-13 3-10 6-8 10-7z" fill="#79C060"/>
<path transform="translate(600,638)" d="m0 0 6 2 4 7 4 3v2l3 1 7 9 2 1v2l4 2 5 3 20 15 15 9 4 3-1 1h-6l-4-2v-2l-9-1-4-1-5-1-3-3 1 6 8 12 10 10 7 6 3 1v2h2v2l3 1 1 3-5-1-15-10-14-11-12-11-9-9-2-5-8-16-4-5-5-13-3-9z" fill="#21522A"/>
<path transform="translate(930,269)" d="m0 0 4 2 3 4v3l-18 1-8 3-6 7-2 5v10l4 7 7 6v3h-44v-27l12-6 37-14z" fill="#DBD9D8"/>
<path transform="translate(867,293)" d="m0 0h2v28l1 1 41-1-4 5-5 5-13 14-9 11-9 10h-3l1-4 1-20 4-1-4-7v-2h-2l-14-19-7-9v-2z" fill="#D9D7D6"/>
<path transform="translate(282,1147)" d="m0 0h1v200h39v-61h1v96h-1v-33l-39-1v120h-1l-1-120-146 1-135-1v-1l134-1 1-145h-66v-1h65v-19l2-1v19l145 1v-52zm-146 54v145l7 1h138l1-55v-81l-1-10z" fill="#A79575"/>
<path transform="translate(1897)" d="m0 0h1v26h91v1l-90 1-1 145h150l-2 2-1 32h-1l-1-32h-144l-1 145h150l-2 2-1 30h-1v-31l-145 1v290l149 1-3 1v30h-1v-30h-146l-1-1-1-145-3-2h4z" fill="#A79575"/>
<path transform="translate(1604,909)" d="m0 0h1v143l145 1v-143h1l1 144-1 145-1 2h-145v18l-1 46h-1v-64l-60 1h-37l-5-1 3-2 99 1v-146l-22 1h-57v-2h79v-143zm1 145-1 2v143l1 1h144l1-1v-144l-1-1z" fill="#A79575"/>
<path transform="translate(869,1202)" d="m0 0h1v145h148v146h145v2h-146v27h-1v-27h-146v27h-1v-174h-56l-1 4v-6h56zm1 146v145l94 1h47l5-1v-145z" fill="#9D9270"/>
<path transform="translate(428,908)" d="m0 0 2 1v144h19l16 1v1h-35v145h31l4 2h-22l-13-1v146h-2v-146h-144v-1h144v-145h-28l-116-1v-1h144z" fill="#A79575"/>
<path transform="translate(577,322)" d="m0 0h29l-10 27-14 41-4 12h-2v-60z" fill="#DBD9D9"/>
<path transform="translate(135,1349)" d="m0 0h1v144h145v-42h1l1 17v26l7-1h139l-1 2h-145v27h-2v-27h-145v27h-2v-26l-134-1v-2h134z" fill="#A79575"/>
<path transform="translate(1119,322)" d="m0 0h44v50l-5-5-9-11-12-14-14-15-4-3z" fill="#DBD9D9"/>
<path transform="translate(1033,1029)" d="m0 0h46l3 15v7l-2-1v-5h-2l-3-10-9-2-9-1-17 1-3 5v76l1 44v38l12 2 14 1 6-4 1-3 1-49h1v58h-40l-1-147z" fill="#103519"/>
<path transform="translate(465,1055)" d="m0 0h1v146h77v-32h-36v-1h37v33l3-1h28v-145l2 1v144h59v2h-42l-17-1v146l-2-1v-145l-4 1h-106z" fill="#968D6B"/>
<path transform="translate(1456,308)" d="m0 0h1v12h146l-1 2h-143l-1 107v37h145v1l-82 1h-63v25h-1l-1-24h-30l1-3 29 1v-88l1-57h-55l-1 2-2-5 57 1zm148 12h146l-1 2-144-1v45l-1 100h-1v-144z" fill="#A89676"/>
<path transform="translate(1386,488)" d="m0 0 7 1 31 12v2l-14 9-32 17-22 12-17 8-1-3 9-6 12-6 6-4h2v-2h2l1-2 2 1v-2l4-1v-2l8-5h2l1-2 4-1 2-5 6-3v-4l-3-2v-2h-2l-2-2-9-1-5 4-5 1v2l-11 6-2-1-2 4h-5l-1 2-5 1 1-3 29-17z" fill="#1B4825"/>
<path transform="translate(1073,1114)" d="m0 0 2 2 14 61 4 18v5l-4 1h-15l-1-1z" fill="#DAD8D7"/>
<path transform="translate(654,408)" d="m0 0h3v2h-2v2h-3l-1 3-4 1-4 4-17 10h-2v2l-6 3-4 4-11 8-4 5-9 5h-2l1 3 7 5 5 2v2h3v3l-9-2-13-5-7-3-8-3-2-1v-2l12-6 21-12 24-13 26-14z" fill="#1D4926"/>
<path transform="translate(1456,1027)" d="m0 0 1 2h33l10 2 12 6 8 9 2 4v5l-2-3-3-5-3-2v-2h-2v-2h-2l-4-5-5-2-10-1-2-1h-42l-4 4-1 4v50l1 4-1 12v52l1 25v7l2 6 5 3 7 1v1h-19v-168l1-4h17z" fill="#18411F"/>
<path transform="translate(1603,1265)" d="m0 0h2v82h22v2h-21l-1 115-1 29h146v2h-146v27h-1v-174h-91v19h-1v-21l92 1z" fill="#A59574"/>
<path transform="translate(1457,28)" d="m0 0h1v118l-1 27h146v2h-65l-80-1v61l-1 46h-1v-106h-130l-1-2h131v-131z" fill="#A89676"/>
<path transform="translate(1139,189)" d="m0 0h7v3l12 2 7 5v2h-4l-1 5-3 2 2 6-1 3-11 2-8 2h-9v2l-3 1-4-3 2-6 11-22z" fill="#4A7E42"/>
<path transform="translate(1488,1286)" d="m0 0h45v19h-20v-1l14-1 3-5-1-4-6-3-12-1h-14l-4 1-2 7v35l1 42 2 5 3 3 3 1h27l3-6-1-4-6-3-12-2v-2h22v20h-46v-43z" fill="#13391B"/>
<path transform="translate(1163,1094)" d="m0 0h1v106h70l1 2h-48l-23-1v146h37v1h-37v174h-1l-1-173-46-1v-1l46-1 1-144h-131l1-2h59l2-1v2l45-1h24z" fill="#5F7A4D"/>
<path transform="translate(1116,619)" d="m0 0 5 2 10 7 11 6 9 7 12 15 12 16 5 6v2l-6 3-2-1 3-3-5-5-9-6-10-5-7-5v-2l-4-2-12-17-12-16z" fill="#1C4925"/>
<path transform="translate(842,324)" d="m0 0 7 1 10 6 11 7 4 3-3 1-1 22h-1v-21l-23 9-1-2-4-1-16 2v-3l-4-1 3-7 5-5 4-1 1-2 4-2h3z" fill="#497C41"/>
<path transform="translate(811,280)" d="m0 0h3v2h2v2l5 2 12 8 9 5 5 3 14 19 7 9v2h2l4 6v2l-4-1-13-8-14-8v-2l-4-2-14-19-11-14-3-4z" fill="#1A4724"/>
<path transform="translate(1016,881)" d="m0 0h1l1 172 14 1v1h-15v288h-1l-1-30v-35l1-76h-81l2-2h79v-145h-86v7h-1v-8l1-1h85v-146z" fill="#738358"/>
<path transform="translate(135,909)" d="m0 0h1v144h145v-52l2-1v147h-1l-1-93h-145v126h-1l-1-125-128-1v-1h128v-26z" fill="#A89676"/>
<path transform="translate(774,671)" d="m0 0 3 1-10 7-16 6-10 2-13 1h-20l-19-2-14-4-2-6h10l17 2h41l26-4z" fill="#A89676"/>
<path transform="translate(840,1029)" d="m0 0h29l-1 2-19 1-2-1v2h-2l-2 4v49l1 10-1 6v41l1 11v38l3 4 14 3h12l2-1 2-4 1-3 1-25h1l1 36h-41l-1-148z" fill="#12391B"/>
<path transform="translate(775,634)" d="m0 0 3 1-5 4-14 6-13 4-16 2h-18l-22-2-14-4-14-7-2-3 16 4 13 2 23 1h35l19-4z" fill="#A89676"/>
<path transform="translate(429,545)" d="m0 0h1v68h146l-1-10 3-2 3 10v4h-4v28h-1v-28h-61l-85-1v72h-1l-1-72h-145v-1l145-1v-66z" fill="#A79575"/>
<path transform="translate(788,1286)" d="m0 0h46v19h-20v-1l13-1 2-9-6-3-22-2-9 2-1 3v70l1 11 3 6 5 3 28 1 1-4 4-4v9h-45z" fill="#123A1C"/>
<path transform="translate(904,328)" d="m0 0v3l-7 10h-2l-1 4-18 27-12 20-5 8h-3v-2l-9 3v-3l11-16 12-16 10-11 9-11z" fill="#214F29"/>
<path transform="translate(135,322)" d="m0 0h1v144h129v1h-129v125h-1l-1-124-134-1v-1h134v-25z" fill="#A89676"/>
<path transform="translate(680,1177)" d="m0 0h20l1 1 1 11v11l-2 1h-22v-13l1-10z" fill="#DAD8D7"/>
<path transform="translate(659,597)" d="m0 0 9 3 25 5 11 1h33l17-2 17-5 4-2 3 1-12 7-20 6-16 2h-21l-18-2-15-4-12-5z" fill="#A89676"/>
<path transform="translate(1279,1177)" d="m0 0h20l1 1 1 10v12l-24 1v-12l1-11z" fill="#DAD8D7"/>
<path transform="translate(323,1286)" d="m0 0h37l2 12v9h-1l-2-6-4-8-3-1v-2h-21l-4 4-1 2-1 43v10l2 25 1 7 4 2 1 1 7 1 2-4 2-2 1-19h1v26h-23z" fill="#11361A"/>
<path transform="translate(1339,1286)" d="m0 0h27l2 5 1 5v8l-4-5-3-6-5-2-11-1-4 5v77l3 8 4 4 6 1v-2h2l1-3 2-1 1-5h1l1 13h-24l-1-40z" fill="#13391B"/>
<path transform="translate(959,221)" d="m0 0 2 1 17 47 1 5-1 5-10-1-1 1h-48v-1h47l-6-45-1-5z" fill="#305F31"/>
<path transform="translate(881,1062)" d="m0 0 7 1 1 1v58l-4 2h-4z" fill="#E7E5E3"/>
<path transform="translate(281,1200)" d="m0 0 2 1v146h39v-61h1v96h-1v-33l-39-1v120h-1l-1-109z" fill="#758459"/>
<path transform="translate(1310,322)" d="m0 0h1l1 144 111 1v3l-1-1-111-1 1 64-3-1v-22l1-41h-19v-1h18v-112z" fill="#A89676"/>
<path transform="translate(575,906)" d="m0 0h2v147h77l3 2-81 1-32-1v-1l19-1h12l-1-146z" fill="#A59474"/>
<path transform="translate(878,487)" d="m0 0h1l2 34 1 15v28l-1 21v28l-1 24-1 23h-1l-1-21v-112z" fill="#28592E"/>
<path transform="translate(866,629)" d="m0 0 2 1-4 1v2l-21 7-15 2h-22l-18-1-1-1v-7l29 1h23l18-2z" fill="#A89676"/>
<path transform="translate(1020,1286)" d="m0 0h38l3 18v9l-2-3-2-11-5-7-6-2-12-1-7 1-2 5h-2l1 6v7l1 6-2 23-1 14-1 35h23v1h-24z" fill="#1E4523"/>
<path transform="translate(722)" d="m0 0h2v14l-1 12h101v1h-100v31l-1 102h-1v-133h-145v-1h145z" fill="#A89676"/>
<path transform="translate(1013,225)" d="m0 0h2l7 49v4h26v1h-36l-4-1 1-16z" fill="#326232"/>
<path transform="translate(576,643)" d="m0 0h1v116h70v3h-72l-145-1v-1h145v-116z" fill="#A89676"/>
<path transform="translate(864,593)" d="m0 0 3 1-10 4h-4v2l-14 4-12 1h-13l-25-1-2-1v-7l21 1h42z" fill="#9F9271"/>
<path transform="translate(282,323)" d="m0 0h1v143h127v1h-127v94h-1l-1-90v-56z" fill="#A89676"/>
<path transform="translate(644,1286)" d="m0 0h24v7l-2 4v-3l-4-2-6-2h-6l-3 3-1 10v44l1 12v10l2 10 3 5h9l4-4 2-3v9l-3 1h-20l-1-40z" fill="#103519"/>
<path transform="translate(1898,1493)" d="m0 0h150v29h-4v-27h-146z" fill="#A89676"/>
<path transform="translate(756,515)" d="m0 0 9 3 17 4 12 2 17 1h27l17-3 9-3 3 1-10 4-8 1v2l-18 3h-38l-21-5-16-8z" fill="#938D6A"/>
<path transform="translate(1897,1198)" d="m0 0 36 1 6 1v1h-40l-1 321h-1v-321l-4-1z" fill="#8F8D68"/>
<path transform="translate(867,293)" d="m0 0h2v27h-10l-12-16v-2z" fill="#DBD9D8"/>
<path transform="translate(464,1055)" d="m0 0h1v141h-1l-2-38v-59l-1-26-1-16z" fill="#ECEBEB"/>
<path transform="translate(870,251)" d="m0 0h3v2l-5 1v2l-10 5-15 9-11 6h-2v2h-2l-1 3 1 4 2 1v6l-5-2-9-6v-2h-2v-2l-2-1 29-15z" fill="#3A6F38"/>
<path transform="translate(1069,220)" d="m0 0h2l-7 50-1 5h-1l-1-5-4 9-5-1 2-10-2 1 3-10 12-34z" fill="#2D5D2F"/>
<path transform="translate(575,309)" d="m0 0h1v11h31v2h-30v20l-1 62h-1v-82h-36l-109-1v-1h145z" fill="#A89676"/>
<path transform="translate(1163,911)" d="m0 0h1v142h89l3 2h-92v39h-1v-39h-23v-1l23-1z" fill="#A79575"/>
<path transform="translate(1288,1093)" d="m0 0 2 2 2 13 3 28v8h-12l1-16z" fill="#E0DDD9"/>
<path transform="translate(689,1094)" d="m0 0h2l5 42v7l-1 1h-11l1-16z" fill="#D9D6D4"/>
<path transform="translate(1479,1128)" d="m0 0 8 1 1 1v35l-3 3h-6z" fill="#D3CEC9"/>
<path transform="translate(1073,1114)" d="m0 0 2 2 9 39v8l-4-8-4 1v44h-3z" fill="#E7E5E3"/>
<path transform="translate(722,406)" d="m0 0h2v61h29l-1 2-28-1-1 71h-1v-71h-110v-1h110z" fill="#A69575"/>
<path transform="translate(853,398)" d="m0 0h3v2l3 1-8 15-1 4h6v1h-5v2l-17-2 1-4 7-12 5-5z" fill="#2F5E30"/>
<path transform="translate(282,136)" d="m0 0h1v187h-2v-2l-2-1h2v-144l-26-1 1-2h25v-36z" fill="#A59574"/>
<path transform="translate(1603,1265)" d="m0 0h2v82h22v2h-24l-91-1v19h-1v-21l92 1z" fill="#7C865D"/>
<path transform="translate(756,478)" d="m0 0 9 3 15 4 22 3h36l13-1v2l-17 3-10 1h-22l-25-4-16-6z" fill="#948F6B"/>
<path transform="translate(282,561)" d="m0 0h1v201l-2-1v-147l-2-1h2v-51z" fill="#A29473"/>
<path transform="translate(1086,1056)" d="m0 0 2 4 4 9h3v-12l3-1v53l-2-1-9-40-1-3z" fill="#E9E7E7"/>
<path transform="translate(1091,1328)" d="m0 0h1v39l-1 20-1-3-7 2v-10l4-27 1-5 2-15z" fill="#E7E5E4"/>
<path transform="translate(869,894)" d="m0 0h1l1 13 11-1h57l76 1v1h-144v18l-1 38h-1z" fill="#A49473"/>
<path transform="translate(1162,1332)" d="m0 0 2 3v12h37v1h-37v174h-1l-1-173-46-1v-1l46-1z" fill="#507644"/>
<path transform="translate(523,1095)" d="m0 0h18v33h-35v-1l11-1 15-3h3l2-12v-9l-4-2-6-2-19-1v-1z" fill="#11361A"/>
<path transform="translate(1099,1029)" d="m0 0h39v24h-1l-1-16-4-3v-2h-19l-8 2-3 7v20l-2 28h-1z" fill="#103519"/>
<path transform="translate(1171,674)" d="m0 0 5 5-4 5-22 11-23 10-3-1 5-2v-2l22-12 8-6 2-4h7l1-2z" fill="#3A7038"/>
<path transform="translate(346,1327)" d="m0 0 2 2 2 9 2 13 3 22v11l-7-2v5h-1z" fill="#E8E6E5"/>
<path transform="translate(881,1157)" d="m0 0 4 1 3 16 2 11v10l-2-4h-6v8l2 1-4 1v-43z" fill="#DEDAD4"/>
<path transform="translate(1479,1063)" d="m0 0h7l2 2v26l-3 3-6 1z" fill="#E5E2DF"/>
<path transform="translate(1377,1286)" d="m0 0h24v59h-1l-1-37-1-13-6-4-7-1-5 5-1 30-2-4z" fill="#13391B"/>
<path transform="translate(390,1348)" d="m0 0h4v39l2 1-4-1-1-2-6 2v-12l4-26z" fill="#E2DFDB"/>
<path transform="translate(1045,1328)" d="m0 0 2 2 6 42v13l-7-1-1-25z" fill="#E7E5E4"/>
<path transform="translate(865,372)" d="m0 0h3l1 4-1 5-1 6-8 13h-3v-2l-9 3v-3l11-16z" fill="#21522A"/>
<path transform="translate(1422,401)" d="m0 0h1l3 29v39l-2 1-2-9-1-19-2-21 2-2z" fill="#2F5B32"/>
<path transform="translate(1260,1029)" d="m0 0h58l1 4v11l-2-2v-4h-2l-1-6h-47l-5 6-2 8-2 12h-1v-9z" fill="#163F1F"/>
<path transform="translate(507,1063)" d="m0 0h36l-2 2-12 2-15 1-3 3-1 14 3 6 1 1 21 1v1h-28z" fill="#ECEBEB"/>
<path transform="translate(1084,1154)" d="m0 0 2 1 6 26 4 12 4 4 17 2 13-1 5-2 2-6h1l1 11h-45l-4-15-6-26z" fill="#12381A"/>
<path transform="translate(890,1182)" d="m0 0 2 4 3 9 4 2 11 1h11l7-2 2-5h3l2 11h-43l-2-11z" fill="#163D1E"/>
<path transform="translate(507,1129)" d="m0 0h34v1l-8 2-15 1-7 2-1 10v12l3 7 2 2 4 2h-12z" fill="#ECEBEB"/>
<path transform="translate(1029,1056)" d="m0 0h3v142h-1l-1-90-1-38-1-13z" fill="#ECEBEB"/>
<path transform="translate(1310,466)" d="m0 0 113 1v3l-1-1-111-1 1 64-3-1v-22l1-41h-19v-1z" fill="#9F9371"/>
<path transform="translate(514,1286)" d="m0 0h34l1 3v9l-5-5-7-3h-16l-5 3-2 8-3 19h-1v-10z" fill="#103619"/>
<path transform="translate(1140,1056)" d="m0 0h2l1 2-1 49-1 93h-2z" fill="#E9E8E8"/>
<path transform="translate(1226,1305)" d="m0 0h5v42h-5z" fill="#D1CCC6"/>
<path transform="translate(323,1338)" d="m0 0 2 1v10l2 25 1 7 4 2 1 1 7 1 2-4 2-2 1-19h1v26h-23z" fill="#103519"/>
<path transform="translate(1239,1185)" d="m0 0h1l2 10 3 3h7l2 1 22 2v-5l2 4h23l1-3v5h-67l3-16z" fill="#2F522E"/>
<path transform="translate(1300,1177)" d="m0 0 2 3 2 8v7l4 2 7 2h16l6-3 2-4h2l2 10h-41l-2-14z" fill="#163E1E"/>
<path transform="translate(577,601)" d="m0 0 2 4 2 6v4h-4v28h-1v-28h-61v-2h61l-1-10z" fill="#AD9D80"/>
<path transform="translate(1021,1351)" d="m0 0h2l1 7 2 23 4 2v2l8-1 4-4 1-24h1v30h-23z" fill="#103519"/>
<path transform="translate(521,1202)" d="m0 0h18l-4 3-8 1-31 1-24-2-1-2z" fill="#ECEBEB"/>
<path transform="translate(1368,1290)" d="m0 0 3 2h4l1-2 2 31v11h-2l-8-36z" fill="#E6E4E3"/>
<path transform="translate(2043,1346)" d="m0 0 5 1-3 1v34h-2l1-34h-144v-1z" fill="#A79575"/>
<path transform="translate(643,1347)" d="m0 0h3l1 12v10l2 10 3 5h9l4-4 2-3v9l-3 1h-20z" fill="#153C1D"/>
<path transform="translate(702,1186)" d="m0 0 3 1 1 9h3v2l3-1 3 1 1 2 6 1v1h-86l1-2 40 1v-5h1v5l23-1z" fill="#274E29"/>
<path transform="translate(677,1181)" d="m0 0h1v15l-1 5h-40v-7l3-9 2 2 1 7 3 3 13 2 10 1 1-2 5-5z" fill="#12381B"/>
<path transform="translate(1400,1352)" d="m0 0h1v35h-27l-3-13v-7l2 4v4h2l1 5 8 4h9l6-6z" fill="#19411F"/>
<path transform="translate(381,1286)" d="m0 0h37l-1 17h-1l-1-9-5-3-5-1h-17l-5 5h-2l-1 3v-9z" fill="#11381B"/>
<path transform="translate(1079,1286)" d="m0 0h27l9 1v44h-1l-1-35-5-4v-2l-12-1h-10l-7 5-1-3z" fill="#103519"/>
<path transform="translate(930,269)" d="m0 0 4 2 3 4v3l-18 1-8 3-4 2v-3l4-2v-3z" fill="#E7E6E6"/>
<path transform="translate(1033,1029)" d="m0 0h46l3 15v7l-2-1v-5h-2l-3-10-9-2-9-1h-2v-2h-21l-1 3z" fill="#143A1D"/>
<path transform="translate(1364,1348)" d="m0 0 3 3 5 23v8l-1-3h-5l-2 2z" fill="#E6E4E2"/>
<path transform="translate(661,1029)" d="m0 0h58v4l-3 1-5-2h-43l-3 1-2 4h-2z" fill="#133B1D"/>
<path transform="translate(776,707)" d="m0 0 2 1-8 6-11 5-9 1-9-3 1-3 19-2 8-2z" fill="#A89676"/>
<path transform="translate(365,1313)" d="m0 0 2 4 1 6 5 2 1-2v10l-2 18h-2l-4-21-1-7z" fill="#E0DDDA"/>
<path transform="translate(1897,323)" d="m0 0h1l1 145-6-1 4-1z" fill="#A79575"/>
<path transform="translate(789,1364)" d="m0 0h2l1 11 3 6 5 3 28 1 1-4 4-4v9h-45z" fill="#103519"/>
<path transform="translate(1114,1353)" d="m0 0h1v33h-23v-20h2l2 8 3 9 1 1h11l2-6z" fill="#103519"/>
<path transform="translate(1072,1317)" d="m0 0h1v9l-4 25h-1l-4-22v-11h1l1 5 5 2z" fill="#E3E1DE"/>
<path transform="translate(869)" d="m0 0h1v26h30v1l-29 1-1 83h-1l-1-85z" fill="#A89676"/>
<path transform="translate(416,1353)" d="m0 0h1v33h-23v-20l2 2 4 13 3 3h8l4-4z" fill="#103519"/>
<path transform="translate(838,1055)" d="m0 0h1v119h-1l-1-107-2-10z" fill="#ECEBEB"/>
<path transform="translate(281,1451)" d="m0 0h1l1 17v54h-2v-27h-8l1-2h7z" fill="#A49474"/>
<path transform="translate(689,1094)" d="m0 0h2l2 16v15l-6 1v-15z" fill="#E2DFDC"/>
<path transform="translate(354,1361)" d="m0 0h1l2 13 6 10 17 1 1-4h2l1-3v9h-27l-1-1-2-13z" fill="#173F1F"/>
<path transform="translate(1511,1367)" d="m0 0h22v19h-7l4-8-1-4-6-3-12-2z" fill="#11371A"/>
<path transform="translate(812,1368)" d="m0 0h22v19h-46v-1h45l-1-9-2-1v-2l-5-2-6-2-7-1z" fill="#194321"/>
<path transform="translate(1458,1029)" d="m0 0h32l10 2 12 6 8 9 2 4v5l-2-3-3-5-3-2v-2h-2v-2h-2l-4-5-5-2-10-1-2-1v-2h-31z" fill="#174120"/>
<path transform="translate(789,421)" d="m0 0h23l-4 2-16 1-12 2-17 5-4 1v-3l9-4 13-3z" fill="#F2C963"/>
<path transform="translate(679,1286)" d="m0 0h26l-4 10-4 7-1-2 1-6-1-5-10-1h-7l-1 2z" fill="#11371A"/>
<path transform="translate(1163)" d="m0 0h1v26h15l21 1v1h-35l-1 43h-2l1-43-4-1 3-1z" fill="#A59474"/>
<path transform="translate(1099,1029)" d="m0 0h39v24h-1l-1-16-4-3v-2h-17l-1-1-15-1z" fill="#11381A"/>
<path transform="translate(1631,1363)" d="m0 0h1l2 15 6 6h8l4-4 1-16h1v22h-23z" fill="#103519"/>
<path transform="translate(1650,1286)" d="m0 0h24l-2 10-2 4-3-9h-2v-2h-8l-7 2z" fill="#12381A"/>
<path transform="translate(1487,1202)" d="m0 0h11l-2 3-29 2h-7l-1 2v-6z" fill="#ECEBEB"/>
<path transform="translate(1313,1029)" d="m0 0h5l1 4v11l-2-2v-4h-2l-1-6h-45v-2z" fill="#103519"/>
<path transform="translate(575,462)" d="m0 0 3 1-1 4h5l-4 2-1 46h-1l-1-46-54-1v-1l54-1z" fill="#A89676"/>
<path transform="translate(1612,1286)" d="m0 0h24l1 3v10l-2-4-2-1v-3l-8-2h-6l-3 3-2 4-2-5z" fill="#13381B"/>
<path transform="translate(1495,1199)" d="m0 0 1 2-2 1h-36v20h-1v-20h-19v-1l19-1z" fill="#224D27"/>
<path transform="translate(1279,1177)" d="m0 0h20v9l-5-4h-8l-4 2-3 4z" fill="#E8E7E7"/>
<path transform="translate(646,1143)" d="m0 0 1 3-3 32-2 6h-2v-10l4-28z" fill="#143B1C"/>
<path transform="translate(565,485)" d="m0 0 2 1 2 31-2-3-1 21h-1l-1-19v-14z" fill="#708557"/>
<path transform="translate(680,1177)" d="m0 0h20v10l-7-6-9 2-4 3z" fill="#E8E7E7"/>
<path transform="translate(1436,1055)" d="m0 0h2v34l-2-3-2-11v-8l-1-8z" fill="#ECEBEB"/>
<path transform="translate(646,759)" d="m0 0 2 2-1 1h-36l-34-1v-1z" fill="#A89676"/>
<path transform="translate(1054,1376)" d="m0 0 3 1v3h2l2 5 17-1 4-4v6l-1 1h-26l-1-1z" fill="#153C1D"/>
<path transform="translate(846,402)" d="m0 0 1 4-3 5h-2l-1 6 5 1 1 3h-13l1-4 7-12z" fill="#22532A"/>
<path transform="translate(1085,1055)" d="m0 0h13l-2 2v9l-1 3-3 1-3-4-2-6-2-1z" fill="#DBD9D9"/>
<path transform="translate(797,1387)" d="m0 0h31l-1 3-9 1h-11l-9-1z" fill="#ECEBEB"/>
<path transform="translate(1495,1387)" d="m0 0h33l-1 3-11 1h-13l-7-1z" fill="#ECEBEB"/>
<path transform="translate(1333,1349)" d="m0 0h6v39l-2-1-1-29-3-7z" fill="#E0DDD9"/>
<path transform="translate(885,1190)" d="m0 0 6 1 1 11h-11l1-3v-8z" fill="#D3CEC9"/>
<path transform="translate(1140,1056)" d="m0 0h2l1 2-1 44-2 4z" fill="#EBEAEA"/>
<path transform="translate(1512,1325)" d="m0 0h20l-1 18h-3l-1-5 1-5-5-4-4-2-7-1z" fill="#103519"/>
<path transform="translate(812,1306)" d="m0 0h23v1l-13 1-7 3v9l6 2-3 2h-6z" fill="#E7E6E6"/>
<path transform="translate(317,1349)" d="m0 0h5v38h-1l-3-30z" fill="#ECEBEB"/>
<path transform="translate(1226,1348)" d="m0 0 5 1v18h-5z" fill="#D0CBC4"/>
<path transform="translate(1425,430)" d="m0 0h1v39l-2 1-2-9v-13l2-1z" fill="#5F7E4D"/>
<path transform="translate(1486,1146)" d="m0 0h1v21l-2 1h-6v-19h1l1 9 4 1z" fill="#E9E8E7"/>
<path transform="translate(889,1068)" d="m0 0h1l1 10 1 18-2 25h-1z" fill="#103519"/>
<path transform="translate(813,1325)" d="m0 0h19v18h-4l1-11-7-4v-2h-9z" fill="#103519"/>
<path transform="translate(282,278)" d="m0 0h1v45h-2v-2l-2-1h2v-41z" fill="#A49473"/>
<path transform="translate(1006,404)" d="m0 0h18v14h-1l-1-7-1-3-9-1-4 2-1 13h-1z" fill="#103519"/>
<path transform="translate(1285,1135)" d="m0 0h2l1 4 3-1 1-3 3 1v8h-12v-8z" fill="#E2E0DD"/>
<path transform="translate(930,269)" d="m0 0 4 2 3 4v3h-16l3-2v-3l3-3z" fill="#DCDADA"/>
<path transform="translate(1202,1347)" d="m0 0 2 4v14l3 9 4 8 2 1-1 2-7-5-3-6z" fill="#12391B"/>
<path transform="translate(530,1330)" d="m0 0 2 1 2 21-6 1v-4z" fill="#DEDCDC"/>
<path transform="translate(638,1349)" d="m0 0h6v21l-1 16h-1l-1-28-2-3z" fill="#DEDAD4"/>
<path transform="translate(2045,1495)" d="m0 0h3v27h-3z" fill="#DBD9D9"/>
<path transform="translate(1017,1348)" d="m0 0h3v26l-2 2-1-1z" fill="#E1E0E0"/>
<path transform="translate(1482,1349)" d="m0 0h6v22l-1 10h-1l-1-22z" fill="#D9D3CB"/>
<path transform="translate(1073,1114)" d="m0 0 2 2 1 7h-2v62h-1z" fill="#CDC6BD"/>
<path transform="translate(502,1377)" d="m0 0 3 1 2 7h9l8 1v1h-24v-7z" fill="#1D4623"/>
<path transform="translate(1016)" d="m0 0h1l1 28-1 42h-2l1-42-4-1 3-1z" fill="#A09372"/>
<path transform="translate(566,512)" d="m0 0 2 2 2 9v10h-3v12h-1z" fill="#366234"/>
<path transform="translate(2021,173)" d="m0 0h27l-2 2-1 32h-1l-1-32h-23z" fill="#A69575"/>
<path transform="translate(1424,418)" d="m0 0h1v29l-2 3-2-8-1-6v-8l3 2z" fill="#3C6638"/>
<path transform="translate(1013,225)" d="m0 0h2l1 5v16h-2l-1 7h-1v-17z" fill="#24522A"/>
<path transform="translate(1137,1190)" d="m0 0h1l1 11h-25l2-2 14-1 5-2z" fill="#103519"/>
<path transform="translate(694,1135)" d="m0 0 2 1v7l-1 1h-11v-8h3l2 3 4-2z" fill="#DEDAD5"/>
<path transform="translate(851,421)" d="m0 0h12l7 2v3 2l-6-1-13-4z" fill="#215029"/>
<path transform="translate(669,1290)" d="m0 0 5 1 2-1-1 5-5 12h-2v-10z" fill="#E9E7E7"/>
<path transform="translate(629,451)" d="m0 0 3 1v2l-15 9-4-1 5-5z" fill="#1B4925"/>
<path transform="translate(1400,1352)" d="m0 0h1v34h-9l6-7 1-1z" fill="#103519"/>
<path transform="translate(741,1195)" d="m0 0 2 1 1 6h-22l-6-1v-1l20-1z" fill="#194220"/>
<path transform="translate(677,1181)" d="m0 0h1v15l-1 5h-19v-1h11l1-2 5-5z" fill="#103519"/>
<path transform="translate(879,1166)" d="m0 0h1v35h-8l1-3h2l2-4 1-3z" fill="#103519"/>
<path transform="translate(504,1132)" d="m0 0h1l1 18v11l-2 3-1-13-1-10z" fill="#103519"/>
<path transform="translate(655,1056)" d="m0 0h1v14l-1 7h-2v5h-1v-7l1-7-1-5v-6z" fill="#E4E2E0"/>
<path transform="translate(567,533)" d="m0 0h3l2 5 1 11-1-2-4-1-1 4z" fill="#29582E"/>
<path transform="translate(691,1349)" d="m0 0 5 1 2 9 4 10-1 3-10-20z" fill="#E2DFDC"/>
<path transform="translate(1506,1035)" d="m0 0 5 1 7 7 4 7v5l-2-3-3-5-3-2v-2h-2v-2h-2l-4-5z" fill="#13391B"/>
<path transform="translate(1074,1156)" d="m0 0h1l1 44h-3v-15z" fill="#E7E6E6"/>
<path transform="translate(1289,1127)" d="m0 0h3v11l-4 1-2-4v-6z" fill="#DBD9D9"/>
<path transform="translate(914,762)" d="m0 0h8l-4 2-25 3h-6l4-3z" fill="#3D733A"/>
<path transform="translate(1079,1286)" d="m0 0h18l-1 2-10 1-7 5-1-3z" fill="#133A1C"/>
<path transform="translate(959,221)" d="m0 0 2 1 5 14-1 5-3-2-3-11z" fill="#29592D"/>
<path transform="translate(346,1327)" d="m0 0 2 2 2 9 1 11h-4l-1-12z" fill="#C5BCAF"/>
<path transform="translate(1276,1182)" d="m0 0h1v14l-1 5h-9l5-5 2-3z" fill="#103519"/>
<path transform="translate(576,733)" d="m0 0h1v29l-4-2h2v-26z" fill="#A49473"/>
<path transform="translate(1091,1328)" d="m0 0h1v21l-4-1 2-19z" fill="#D5D0CA"/>
<path transform="translate(1402,1294)" d="m0 0h1v51l2 1-4 1z" fill="#EBEAEA"/>
<path transform="translate(1045,1328)" d="m0 0 2 2 2 19h-4z" fill="#D6D2CD"/>
<path transform="translate(904,328)" d="m0 0v3l-7 10-7 5-4 5-2-1 11-12 7-8z" fill="#235028"/>
<path transform="translate(860,320)" d="m0 0h8l1 1v10l-5-5z" fill="#CFC8BE"/>
<path transform="translate(282)" d="m0 0h1v29l-21-2v-1h20z" fill="#A19372"/>
<path transform="translate(678,1375)" d="m0 0 3 4v2l4 2 2 2 21 1v1h-25l-3-4-2-5z" fill="#224C26"/>
<path transform="translate(1313,1029)" d="m0 0h5l1 4v11l-2-2v-4h-2l-1-6-3-1z" fill="#13391B"/>
<path transform="translate(1163,320)" d="m0 0 2 2-1 50h-1l-1-51z" fill="#3B6E39"/>
<path transform="translate(701,1374)" d="m0 0 3 3 4 9h-21v-1l15-1z" fill="#11371A"/>
<path transform="translate(1339,1192)" d="m0 0h2l1 2v7h-11l7-7z" fill="#11371A"/>
<path transform="translate(393,1327)" d="m0 0h1v20h-4l2-17z" fill="#D7D3CE"/>
<path transform="translate(1084,1154)" d="m0 0 2 1 5 22-1 5h-1l-5-22z" fill="#163E1E"/>
<path transform="translate(1211,193)" d="m0 0h9l15 3v3l-9-1-6-2-9-2z" fill="#306131"/>
<path transform="translate(538,1374)" d="m0 0 2 4 2 5h2v2h13v1h-19z" fill="#103519"/>
<path transform="translate(1640,1304)" d="m0 0 4 3 1-2v9l-1 6-2-1-2-8z" fill="#E3E0DE"/>
<path transform="translate(514,1293)" d="m0 0 1 4-4 23h-1v-10l2-14z" fill="#153D1D"/>
<path transform="translate(914,1036)" d="m0 0 4 1 5 4 4 7-1 3-3-4v-2l-4-2-5-5z" fill="#153C1D"/>
<path transform="translate(1197,1349)" d="m0 0h4v24h-1l-1-13z" fill="#ECEBEB"/>
<path transform="translate(784,1349)" d="m0 0h3v35h-1l-1-28z" fill="#ECEBEB"/>
<path transform="translate(504,1066)" d="m0 0h1v23l-2-4 1-4-2-1v-9z" fill="#103519"/>
<path transform="translate(1053,438)" d="m0 0 5 2 8 6 8 9-1 3-6-8-6-5-8-5z" fill="#133A1C"/>
<path transform="translate(1059,251)" d="m0 0 1 3-4 14-4 1 3-10 3-7z" fill="#23522A"/>
<path transform="translate(1423,453)" d="m0 0 3 2v14l-2 1-1-2z" fill="#356935"/>
<path transform="translate(1361,1374)" d="m0 0h1l1 12h-9l1-3h2l1-3 2-1z" fill="#103519"/>
<path transform="translate(523,1373)" d="m0 0h1v13h-8l3-5h3z" fill="#11371A"/>
<path transform="translate(525,1373)" d="m0 0h12l-1 5-1-2h-6l-2 1-1 5h-1z" fill="#EBEAEA"/>
<path transform="translate(1278,1178)" d="m0 0h1l1 18 1 4-4 1v-12z" fill="#DBD7D3"/>
<path transform="translate(1311,1203)" d="m0 0h20v1l-9 1-10 2z" fill="#ECEBEB"/>
<path transform="translate(657,1066)" d="m0 0h1l-1 12-2 9h-1v-10l2-10z" fill="#143B1C"/>
<path transform="translate(691,1315)" d="m0 0h2l-2 6-5 10-3 2 2-6z" fill="#D6D1C9"/>
<path transform="translate(870,423)" d="m0 0 6 1v2h-2l2 5 1 2-4-2-4-3z" fill="#295A2E"/>
<path transform="translate(771,764)" d="m0 0 22 3v1h-13l-9-2z" fill="#336333"/>
<path transform="translate(966,583)" d="m0 0h5v8l-3-4-8-1 1-2z" fill="#1D4723"/>
<path transform="translate(464,1030)" d="m0 0h1v20l-2 1-1-5z" fill="#ECEBEB"/>
<path transform="translate(669,1362)" d="m0 0 3 1 2 4-1 4-2-1-2 2z" fill="#E2DFDB"/>
<path transform="translate(1512,1306)" d="m0 0h22v1h-18v2l-4 2z" fill="#ECEBEB"/>
<path transform="translate(1254,1056)" d="m0 0h1v13l-2 1-1-7v-6z" fill="#E5E3E1"/>
<path transform="translate(1437,1034)" d="m0 0h1v20l-3-1 1-8z" fill="#EAE9E9"/>
<path transform="translate(1224,601)" d="m0 0m-3 1 2 1-1 3-11 5-4-1 8-4 5-2z" fill="#336333"/>
<path transform="translate(566,512)" d="m0 0 2 2 2 9v9h-1l-2-10-1-2z" fill="#487540"/>
<path transform="translate(666,1377)" d="m0 0h1v9h-7l3-5 2-1z" fill="#103519"/>
<path transform="translate(974,264)" d="m0 0 3 2 2 5-1 8h-1l-2-7z" fill="#24542B"/>
<path transform="translate(1479,1128)" d="m0 0 8 1-1 4h-7z" fill="#E7E5E4"/>
<path transform="translate(544,1032)" d="m0 0h1v17h2v2l2 2h-5z" fill="#ECEBEB"/>
<path transform="translate(135,894)" d="m0 0h1v15l-4-2 2-2v-10z" fill="#A09371"/>
<path transform="translate(891,764)" d="m0 0h11v2l-15 1z" fill="#3E743B"/>
<path transform="translate(813,1353)" d="m0 0h1v9l4 2 3 2h-8z" fill="#ECEBEB"/>
<path transform="translate(1624,1349)" d="m0 0h5v10l-1-4h-2l-2-3z" fill="#E7E6E5"/>
<path transform="translate(1241,1171)" d="m0 0h1v10h-2l-1 3v-10z" fill="#133A1B"/>
<path transform="translate(1255,1073)" d="m0 0 2 2-2 6-1 7-2 1 1-12z" fill="#163E1E"/>
<path transform="translate(867,1023)" d="m0 0h1v5h-20v-1l15-1 3-1z" fill="#ECEBEB"/>
<path transform="translate(530,1347)" d="m0 0 4 1v4l-6 1-1-3 3-2z" fill="#D4CEC5"/>
<path transform="translate(678,1188)" d="m0 0h2l1 9 1 3h-4z" fill="#DEDBD6"/>
<path transform="translate(348,1338)" d="m0 0h2l1 11h-4z" fill="#D1CAC0"/>
<path transform="translate(813,1318)" d="m0 0h2v2l6 2-3 2h-5z" fill="#ECEBEB"/>
<path transform="translate(866,629)" d="m0 0 2 1-4 1v2l-7 2-3-2z" fill="#5F7C4D"/>
</svg>
